<svg width="1179" height="613" version="1.1" xmlns="http://www.w3.org/2000/svg" desc="Created with imagetracer.js version 1.2.6" ><path fill="rgb(25,25,25)" stroke="rgb(25,25,25)" stroke-width="1" opacity="1" d="M 732.5 141 L 731 143.5 L 621 302.5 L 615 313.5 L 677 399.5 L 665.5 400 L 607.5 321 L 549.5 400 L 538.5 400 L 538 398.5 L 601 312.5 L 542 230.5 L 555 230 L 607.5 304 L 663 228.5 L 732.5 141 Z " /><path fill="rgb(25,25,25)" stroke="rgb(25,25,25)" stroke-width="1" opacity="1" d="M 275 230 L 288.5 230 L 289 231.5 L 464 492.5 L 461 490.5 L 392 398.5 L 286.5 244 L 286 256.5 L 285 257.5 L 285 400 L 274 400 L 274 385.5 L 275 384.5 L 275 230 Z " /><path fill="rgb(25,25,25)" stroke="rgb(25,25,25)" stroke-width="1" opacity="1" d="M 417 230 L 530.5 230 L 531 230.5 L 531 239 L 428 239 L 428 307 L 524.5 307 L 525 307.5 L 525 316 L 428 316 L 428 391 L 532.5 391 L 533 391.5 L 533 400 L 417 400 L 417 230 Z " /><path fill="rgb(25,25,25)" stroke="rgb(25,25,25)" stroke-width="1" opacity="1" d="M 682 230 L 811.5 230 L 812 230.5 L 812 239 L 752 239 L 752 399.5 L 751.5 400 L 742 400 L 742 239 L 682.5 239 L 682 238.5 L 682 230 Z " /><path fill="rgb(25,25,25)" stroke="rgb(25,25,25)" stroke-width="1" opacity="1" d="M 862.5 350 L 871.5 351 L 878 356.5 L 879 360.5 L 873 361 L 869.5 356 L 864.5 355 L 858 358.5 Q 857 363 859.5 364 L 873.5 368 L 878 372.5 L 879 380.5 L 875.5 386 L 867.5 389 L 862.5 389 Q 855.1 387.9 852 382.5 L 851 378.5 L 857 378 L 860.5 383 L 866.5 384 L 873 380.5 Q 874.3 375.3 871.5 374 L 859.5 371 L 854 368 Q 851.3 365.4 852 358.5 L 855.5 353 L 862.5 350 Z " /><path fill="rgb(25,25,25)" stroke="rgb(25,25,25)" stroke-width="1" opacity="1" d="M 838 351 L 843.5 351 L 844 351.5 L 844 379.5 L 839.5 387 L 832.5 389 L 827.5 388 L 823 384.5 L 821 378 L 827 378 L 827 380.5 Q 828.3 384.3 834.5 383 L 837 382 L 838 378.5 L 838 351 Z " /><path fill="rgb(25,25,25)" stroke="rgb(25,25,25)" stroke-width="1" opacity="1" d="M 809.5 381 Q 813.3 380.3 814 382.5 L 815 384.5 L 812.5 388 Q 807.8 388.8 807 385.5 Q 806.5 381.5 809.5 381 Z " /><path fill="rgb(254,254,254)" stroke="rgb(254,254,254)" stroke-width="1" opacity="1" d="M 737.5 134 L 737 135.5 L 733.5 141 L 731 142.5 L 731.5 144 L 730 142.5 L 734 138.5 L 737.5 134 Z " /><path fill="rgb(254,254,254)" stroke="rgb(254,254,254)" stroke-width="1" opacity="1" d="M 728.5 145 Q 731.5 146.5 728.5 148 L 726 147.5 L 728.5 145 Z " /><path fill="rgb(254,254,254)" stroke="rgb(254,254,254)" stroke-width="1" opacity="1" d="M 727.5 149 L 726.5 151 L 727.5 149 Z " /><path fill="rgb(254,254,254)" stroke="rgb(254,254,254)" stroke-width="1" opacity="1" d="M 724.5 150 L 723.5 152 L 724.5 150 Z " /><path fill="rgb(254,254,254)" stroke="rgb(254,254,254)" stroke-width="1" opacity="1" d="M 725.5 152 L 724.5 154 L 725.5 152 Z " /><path fill="rgb(254,254,254)" stroke="rgb(254,254,254)" stroke-width="1" opacity="1" d="M 721.5 154 L 719.5 157 L 721.5 154 Z " /><path fill="rgb(254,254,254)" stroke="rgb(254,254,254)" stroke-width="1" opacity="1" d="M 717.5 159 L 715.5 162 L 717.5 159 Z " /><path fill="rgb(254,254,254)" stroke="rgb(254,254,254)" stroke-width="1" opacity="1" d="M 720.5 159 L 719.5 161 L 720.5 159 Z " /><path fill="rgb(254,254,254)" stroke="rgb(254,254,254)" stroke-width="1" opacity="1" d="M 718.5 162 L 717.5 164 L 718.5 162 Z " /><path fill="rgb(254,254,254)" stroke="rgb(254,254,254)" stroke-width="1" opacity="1" d="M 713.5 164 L 712.5 166 L 713.5 164 Z " /><path fill="rgb(254,254,254)" stroke="rgb(254,254,254)" stroke-width="1" opacity="1" d="M 716.5 165 L 715.5 167 L 716.5 165 Z " /><path fill="rgb(254,254,254)" stroke="rgb(254,254,254)" stroke-width="1" opacity="1" d="M 710.5 168 L 708.5 171 L 710.5 168 Z " /><path fill="rgb(254,254,254)" stroke="rgb(254,254,254)" stroke-width="1" opacity="1" d="M 714.5 168 L 713.5 170 L 714.5 168 Z " /><path fill="rgb(254,254,254)" stroke="rgb(254,254,254)" stroke-width="1" opacity="1" d="M 711.5 172 L 710.5 174 L 711.5 172 Z " /><path fill="rgb(254,254,254)" stroke="rgb(254,254,254)" stroke-width="1" opacity="1" d="M 706.5 173 L 704.5 176 L 706.5 173 Z " /><path fill="rgb(254,254,254)" stroke="rgb(254,254,254)" stroke-width="1" opacity="1" d="M 709.5 175 L 708.5 177 L 709.5 175 Z " /><path fill="rgb(254,254,254)" stroke="rgb(254,254,254)" stroke-width="1" opacity="1" d="M 702.5 178 L 701.5 180 L 702.5 178 Z " /><path fill="rgb(254,254,254)" stroke="rgb(254,254,254)" stroke-width="1" opacity="1" d="M 707.5 178 L 706.5 180 L 707.5 178 Z " /><path fill="rgb(254,254,254)" stroke="rgb(254,254,254)" stroke-width="1" opacity="1" d="M 705.5 181 L 704.5 183 L 705.5 181 Z " /><path fill="rgb(254,254,254)" stroke="rgb(254,254,254)" stroke-width="1" opacity="1" d="M 699.5 182 L 697.5 185 L 699.5 182 Z " /><path fill="rgb(254,254,254)" stroke="rgb(254,254,254)" stroke-width="1" opacity="1" d="M 702.5 185 L 701.5 187 L 702.5 185 Z " /><path fill="rgb(254,254,254)" stroke="rgb(254,254,254)" stroke-width="1" opacity="1" d="M 695.5 187 L 693.5 190 L 695.5 187 Z " /><path fill="rgb(254,254,254)" stroke="rgb(254,254,254)" stroke-width="1" opacity="1" d="M 700.5 188 L 699.5 190 L 700.5 188 Z " /><path fill="rgb(254,254,254)" stroke="rgb(254,254,254)" stroke-width="1" opacity="1" d="M 698.5 191 L 697.5 193 L 698.5 191 Z " /><path fill="rgb(254,254,254)" stroke="rgb(254,254,254)" stroke-width="1" opacity="1" d="M 691.5 192 L 690.5 194 L 691.5 192 Z " /><path fill="rgb(254,254,254)" stroke="rgb(254,254,254)" stroke-width="1" opacity="1" d="M 696.5 194 L 695.5 196 L 696.5 194 Z " /><path fill="rgb(254,254,254)" stroke="rgb(254,254,254)" stroke-width="1" opacity="1" d="M 688.5 196 L 686.5 199 L 688.5 196 Z " /><path fill="rgb(254,254,254)" stroke="rgb(254,254,254)" stroke-width="1" opacity="1" d="M 684.5 201 L 682.5 204 L 684.5 201 Z " /><path fill="rgb(254,254,254)" stroke="rgb(254,254,254)" stroke-width="1" opacity="1" d="M 691.5 201 L 690.5 203 L 691.5 201 Z " /><path fill="rgb(254,254,254)" stroke="rgb(254,254,254)" stroke-width="1" opacity="1" d="M 689.5 204 L 688.5 206 L 689.5 204 Z " /><path fill="rgb(254,254,254)" stroke="rgb(254,254,254)" stroke-width="1" opacity="1" d="M 680.5 206 L 679.5 208 L 680.5 206 Z " /><path fill="rgb(254,254,254)" stroke="rgb(254,254,254)" stroke-width="1" opacity="1" d="M 687.5 207 L 686.5 209 L 687.5 207 Z " /><path fill="rgb(254,254,254)" stroke="rgb(254,254,254)" stroke-width="1" opacity="1" d="M 677.5 210 L 675.5 213 L 677.5 210 Z " /><path fill="rgb(254,254,254)" stroke="rgb(254,254,254)" stroke-width="1" opacity="1" d="M 682.5 214 L 681.5 216 L 682.5 214 Z " /><path fill="rgb(254,254,254)" stroke="rgb(254,254,254)" stroke-width="1" opacity="1" d="M 673.5 215 L 671.5 218 L 673.5 215 Z " /><path fill="rgb(254,254,254)" stroke="rgb(254,254,254)" stroke-width="1" opacity="1" d="M 680.5 217 L 679.5 219 L 680.5 217 Z " /><path fill="rgb(254,254,254)" stroke="rgb(254,254,254)" stroke-width="1" opacity="1" d="M 669.5 220 L 668.5 222 L 669.5 220 Z " /><path fill="rgb(254,254,254)" stroke="rgb(254,254,254)" stroke-width="1" opacity="1" d="M 678.5 220 L 677.5 222 L 678.5 220 Z " /><path fill="rgb(254,254,254)" stroke="rgb(254,254,254)" stroke-width="1" opacity="1" d="M 666.5 224 L 664.5 227 L 666.5 224 Z " /><path fill="rgb(254,254,254)" stroke="rgb(254,254,254)" stroke-width="1" opacity="1" d="M 673.5 227 L 672.5 229 L 673.5 227 Z " /><path fill="rgb(254,254,254)" stroke="rgb(254,254,254)" stroke-width="1" opacity="1" d="M 275.5 229 L 288 229.5 L 275 230 L 274.5 385 L 274 230.5 L 275.5 229 Z " /><path fill="rgb(254,254,254)" stroke="rgb(254,254,254)" stroke-width="1" opacity="1" d="M 417.5 229 L 531.5 229 L 532 229.5 L 532 238.5 L 531 238.5 L 531 230.5 L 530.5 230 L 417.5 230 L 417.5 229 Z " /><path fill="rgb(254,254,254)" stroke="rgb(254,254,254)" stroke-width="1" opacity="1" d="M 541.5 229 L 554 229.5 L 541.5 230 L 541.5 229 Z " /><path fill="rgb(254,254,254)" stroke="rgb(254,254,254)" stroke-width="1" opacity="1" d="M 662.5 229 L 661.5 231 L 662.5 229 Z " /><path fill="rgb(254,254,254)" stroke="rgb(254,254,254)" stroke-width="1" opacity="1" d="M 682.5 229 L 812.5 229 L 813 229.5 L 813 238.5 L 812 238.5 L 812 230.5 L 811.5 230 L 682.5 230 L 682.5 229 Z " /><path fill="rgb(254,254,254)" stroke="rgb(254,254,254)" stroke-width="1" opacity="1" d="M 671.5 230 L 670.5 232 L 671.5 230 Z " /><path fill="rgb(254,254,254)" stroke="rgb(254,254,254)" stroke-width="1" opacity="1" d="M 542.5 231 L 543.5 233 L 542.5 231 Z " /><path fill="rgb(254,254,254)" stroke="rgb(254,254,254)" stroke-width="1" opacity="1" d="M 555.5 231 L 556.5 233 L 555.5 231 Z " /><path fill="rgb(254,254,254)" stroke="rgb(254,254,254)" stroke-width="1" opacity="1" d="M 659.5 233 L 658.5 235 L 659.5 233 Z " /><path fill="rgb(254,254,254)" stroke="rgb(254,254,254)" stroke-width="1" opacity="1" d="M 669.5 233 L 668.5 235 L 669.5 233 Z " /><path fill="rgb(254,254,254)" stroke="rgb(254,254,254)" stroke-width="1" opacity="1" d="M 557.5 234 L 558.5 236 L 557.5 234 Z " /><path fill="rgb(254,254,254)" stroke="rgb(254,254,254)" stroke-width="1" opacity="1" d="M 545.5 235 L 546.5 237 L 545.5 235 Z " /><path fill="rgb(254,254,254)" stroke="rgb(254,254,254)" stroke-width="1" opacity="1" d="M 667.5 236 L 666.5 238 L 667.5 236 Z " /><path fill="rgb(254,254,254)" stroke="rgb(254,254,254)" stroke-width="1" opacity="1" d="M 656.5 237 L 655.5 239 L 656.5 237 Z " /><path fill="rgb(254,254,254)" stroke="rgb(254,254,254)" stroke-width="1" opacity="1" d="M 547.5 238 L 548.5 240 L 547.5 238 Z " /><path fill="rgb(254,254,254)" stroke="rgb(254,254,254)" stroke-width="1" opacity="1" d="M 560.5 238 L 561.5 240 L 560.5 238 Z " /><path fill="rgb(254,254,254)" stroke="rgb(254,254,254)" stroke-width="1" opacity="1" d="M 741.5 239 L 742 399.5 L 741 399.5 L 741.5 239 Z " /><path fill="rgb(254,254,254)" stroke="rgb(254,254,254)" stroke-width="1" opacity="1" d="M 752.5 239 L 753 399.5 L 752 399.5 L 752.5 239 Z " /><path fill="rgb(254,254,254)" stroke="rgb(254,254,254)" stroke-width="1" opacity="1" d="M 654.5 240 L 652.5 243 L 654.5 240 Z " /><path fill="rgb(254,254,254)" stroke="rgb(254,254,254)" stroke-width="1" opacity="1" d="M 664.5 240 L 663.5 242 L 664.5 240 Z " /><path fill="rgb(254,254,254)" stroke="rgb(254,254,254)" stroke-width="1" opacity="1" d="M 562.5 241 L 563.5 243 L 562.5 241 Z " /><path fill="rgb(254,254,254)" stroke="rgb(254,254,254)" stroke-width="1" opacity="1" d="M 550.5 242 L 551.5 244 L 550.5 242 Z " /><path fill="rgb(254,254,254)" stroke="rgb(254,254,254)" stroke-width="1" opacity="1" d="M 662.5 243 L 661.5 245 L 662.5 243 Z " /><path fill="rgb(254,254,254)" stroke="rgb(254,254,254)" stroke-width="1" opacity="1" d="M 286.5 244 L 287.5 246 L 286.5 244 Z " /><path fill="rgb(254,254,254)" stroke="rgb(254,254,254)" stroke-width="1" opacity="1" d="M 651.5 244 L 650.5 246 L 651.5 244 Z " /><path fill="rgb(254,254,254)" stroke="rgb(254,254,254)" stroke-width="1" opacity="1" d="M 552.5 245 L 553.5 247 L 552.5 245 Z " /><path fill="rgb(254,254,254)" stroke="rgb(254,254,254)" stroke-width="1" opacity="1" d="M 565.5 245 L 566.5 247 L 565.5 245 Z " /><path fill="rgb(254,254,254)" stroke="rgb(254,254,254)" stroke-width="1" opacity="1" d="M 660.5 246 L 659.5 248 L 660.5 246 Z " /><path fill="rgb(254,254,254)" stroke="rgb(254,254,254)" stroke-width="1" opacity="1" d="M 288.5 247 L 289.5 249 L 288.5 247 Z " /><path fill="rgb(254,254,254)" stroke="rgb(254,254,254)" stroke-width="1" opacity="1" d="M 567.5 248 L 568.5 250 L 567.5 248 Z " /><path fill="rgb(254,254,254)" stroke="rgb(254,254,254)" stroke-width="1" opacity="1" d="M 648.5 248 L 647.5 250 L 648.5 248 Z " /><path fill="rgb(254,254,254)" stroke="rgb(254,254,254)" stroke-width="1" opacity="1" d="M 555.5 249 L 556.5 251 L 555.5 249 Z " /><path fill="rgb(254,254,254)" stroke="rgb(254,254,254)" stroke-width="1" opacity="1" d="M 658.5 249 L 657.5 251 L 658.5 249 Z " /><path fill="rgb(254,254,254)" stroke="rgb(254,254,254)" stroke-width="1" opacity="1" d="M 290.5 250 L 291.5 252 L 290.5 250 Z " /><path fill="rgb(254,254,254)" stroke="rgb(254,254,254)" stroke-width="1" opacity="1" d="M 557.5 252 L 558.5 254 L 557.5 252 Z " /><path fill="rgb(254,254,254)" stroke="rgb(254,254,254)" stroke-width="1" opacity="1" d="M 570.5 252 L 571.5 254 L 570.5 252 Z " /><path fill="rgb(254,254,254)" stroke="rgb(254,254,254)" stroke-width="1" opacity="1" d="M 645.5 252 L 644.5 254 L 645.5 252 Z " /><path fill="rgb(254,254,254)" stroke="rgb(254,254,254)" stroke-width="1" opacity="1" d="M 643.5 255 L 641.5 258 L 643.5 255 Z " /><path fill="rgb(254,254,254)" stroke="rgb(254,254,254)" stroke-width="1" opacity="1" d="M 560.5 256 L 561.5 258 L 560.5 256 Z " /><path fill="rgb(254,254,254)" stroke="rgb(254,254,254)" stroke-width="1" opacity="1" d="M 653.5 256 L 652.5 258 L 653.5 256 Z " /><path fill="rgb(254,254,254)" stroke="rgb(254,254,254)" stroke-width="1" opacity="1" d="M 285.5 257 L 286 399.5 L 285 399.5 L 285.5 257 Z " /><path fill="rgb(254,254,254)" stroke="rgb(254,254,254)" stroke-width="1" opacity="1" d="M 562.5 259 L 563.5 261 L 562.5 259 Z " /><path fill="rgb(254,254,254)" stroke="rgb(254,254,254)" stroke-width="1" opacity="1" d="M 575.5 259 L 576.5 261 L 575.5 259 Z " /><path fill="rgb(254,254,254)" stroke="rgb(254,254,254)" stroke-width="1" opacity="1" d="M 640.5 259 L 639.5 261 L 640.5 259 Z " /><path fill="rgb(254,254,254)" stroke="rgb(254,254,254)" stroke-width="1" opacity="1" d="M 651.5 259 L 650.5 261 L 651.5 259 Z " /><path fill="rgb(254,254,254)" stroke="rgb(254,254,254)" stroke-width="1" opacity="1" d="M 649.5 262 L 648.5 264 L 649.5 262 Z " /><path fill="rgb(254,254,254)" stroke="rgb(254,254,254)" stroke-width="1" opacity="1" d="M 299.5 263 L 300.5 265 L 299.5 263 Z " /><path fill="rgb(254,254,254)" stroke="rgb(254,254,254)" stroke-width="1" opacity="1" d="M 565.5 263 L 566.5 265 L 565.5 263 Z " /><path fill="rgb(254,254,254)" stroke="rgb(254,254,254)" stroke-width="1" opacity="1" d="M 637.5 263 L 636.5 265 L 637.5 263 Z " /><path fill="rgb(254,254,254)" stroke="rgb(254,254,254)" stroke-width="1" opacity="1" d="M 301.5 266 L 302.5 268 L 301.5 266 Z " /><path fill="rgb(254,254,254)" stroke="rgb(254,254,254)" stroke-width="1" opacity="1" d="M 567.5 266 L 568.5 268 L 567.5 266 Z " /><path fill="rgb(254,254,254)" stroke="rgb(254,254,254)" stroke-width="1" opacity="1" d="M 580.5 266 L 581.5 268 L 580.5 266 Z " /><path fill="rgb(254,254,254)" stroke="rgb(254,254,254)" stroke-width="1" opacity="1" d="M 634.5 267 L 633.5 269 L 634.5 267 Z " /><path fill="rgb(254,254,254)" stroke="rgb(254,254,254)" stroke-width="1" opacity="1" d="M 303.5 269 L 304.5 271 L 303.5 269 Z " /><path fill="rgb(254,254,254)" stroke="rgb(254,254,254)" stroke-width="1" opacity="1" d="M 644.5 269 L 643.5 271 L 644.5 269 Z " /><path fill="rgb(254,254,254)" stroke="rgb(254,254,254)" stroke-width="1" opacity="1" d="M 570.5 270 L 571.5 272 L 570.5 270 Z " /><path fill="rgb(254,254,254)" stroke="rgb(254,254,254)" stroke-width="1" opacity="1" d="M 632.5 270 L 630.5 273 L 632.5 270 Z " /><path fill="rgb(254,254,254)" stroke="rgb(254,254,254)" stroke-width="1" opacity="1" d="M 642.5 272 L 641.5 274 L 642.5 272 Z " /><path fill="rgb(254,254,254)" stroke="rgb(254,254,254)" stroke-width="1" opacity="1" d="M 585.5 273 L 586.5 275 L 585.5 273 Z " /><path fill="rgb(254,254,254)" stroke="rgb(254,254,254)" stroke-width="1" opacity="1" d="M 629.5 274 L 628.5 276 L 629.5 274 Z " /><path fill="rgb(254,254,254)" stroke="rgb(254,254,254)" stroke-width="1" opacity="1" d="M 640.5 275 L 639.5 277 L 640.5 275 Z " /><path fill="rgb(254,254,254)" stroke="rgb(254,254,254)" stroke-width="1" opacity="1" d="M 575.5 277 L 576.5 279 L 575.5 277 Z " /><path fill="rgb(254,254,254)" stroke="rgb(254,254,254)" stroke-width="1" opacity="1" d="M 626.5 278 L 625.5 280 L 626.5 278 Z " /><path fill="rgb(254,254,254)" stroke="rgb(254,254,254)" stroke-width="1" opacity="1" d="M 310.5 279 L 311.5 281 L 310.5 279 Z " /><path fill="rgb(254,254,254)" stroke="rgb(254,254,254)" stroke-width="1" opacity="1" d="M 590.5 280 L 591.5 282 L 590.5 280 Z " /><path fill="rgb(254,254,254)" stroke="rgb(254,254,254)" stroke-width="1" opacity="1" d="M 312.5 282 L 313.5 284 L 312.5 282 Z " /><path fill="rgb(254,254,254)" stroke="rgb(254,254,254)" stroke-width="1" opacity="1" d="M 623.5 282 L 622.5 284 L 623.5 282 Z " /><path fill="rgb(254,254,254)" stroke="rgb(254,254,254)" stroke-width="1" opacity="1" d="M 580.5 284 L 581.5 286 L 580.5 284 Z " /><path fill="rgb(254,254,254)" stroke="rgb(254,254,254)" stroke-width="1" opacity="1" d="M 314.5 285 L 315.5 287 L 314.5 285 Z " /><path fill="rgb(254,254,254)" stroke="rgb(254,254,254)" stroke-width="1" opacity="1" d="M 325.5 285 L 326.5 287 L 325.5 285 Z " /><path fill="rgb(254,254,254)" stroke="rgb(254,254,254)" stroke-width="1" opacity="1" d="M 633.5 285 L 632.5 287 L 633.5 285 Z " /><path fill="rgb(254,254,254)" stroke="rgb(254,254,254)" stroke-width="1" opacity="1" d="M 620.5 286 L 619.5 288 L 620.5 286 Z " /><path fill="rgb(254,254,254)" stroke="rgb(254,254,254)" stroke-width="1" opacity="1" d="M 595.5 287 L 596.5 289 L 595.5 287 Z " /><path fill="rgb(254,254,254)" stroke="rgb(254,254,254)" stroke-width="1" opacity="1" d="M 316.5 288 L 317.5 290 L 316.5 288 Z " /><path fill="rgb(254,254,254)" stroke="rgb(254,254,254)" stroke-width="1" opacity="1" d="M 327.5 288 L 328.5 290 L 327.5 288 Z " /><path fill="rgb(254,254,254)" stroke="rgb(254,254,254)" stroke-width="1" opacity="1" d="M 631.5 288 L 630.5 290 L 631.5 288 Z " /><path fill="rgb(254,254,254)" stroke="rgb(254,254,254)" stroke-width="1" opacity="1" d="M 618.5 289 L 616.5 292 L 618.5 289 Z " /><path fill="rgb(254,254,254)" stroke="rgb(254,254,254)" stroke-width="1" opacity="1" d="M 329.5 291 L 330.5 293 L 329.5 291 Z " /><path fill="rgb(254,254,254)" stroke="rgb(254,254,254)" stroke-width="1" opacity="1" d="M 585.5 291 L 586.5 293 L 585.5 291 Z " /><path fill="rgb(254,254,254)" stroke="rgb(254,254,254)" stroke-width="1" opacity="1" d="M 629.5 291 L 628.5 293 L 629.5 291 Z " /><path fill="rgb(254,254,254)" stroke="rgb(254,254,254)" stroke-width="1" opacity="1" d="M 615.5 293 L 614.5 295 L 615.5 293 Z " /><path fill="rgb(254,254,254)" stroke="rgb(254,254,254)" stroke-width="1" opacity="1" d="M 331.5 294 L 332.5 296 L 331.5 294 Z " /><path fill="rgb(254,254,254)" stroke="rgb(254,254,254)" stroke-width="1" opacity="1" d="M 600.5 294 L 601.5 296 L 600.5 294 Z " /><path fill="rgb(254,254,254)" stroke="rgb(254,254,254)" stroke-width="1" opacity="1" d="M 321.5 295 L 322.5 297 L 321.5 295 Z " /><path fill="rgb(254,254,254)" stroke="rgb(254,254,254)" stroke-width="1" opacity="1" d="M 333.5 297 L 334.5 299 L 333.5 297 Z " /><path fill="rgb(254,254,254)" stroke="rgb(254,254,254)" stroke-width="1" opacity="1" d="M 612.5 297 L 611.5 299 L 612.5 297 Z " /><path fill="rgb(254,254,254)" stroke="rgb(254,254,254)" stroke-width="1" opacity="1" d="M 323.5 298 L 324.5 300 L 323.5 298 Z " /><path fill="rgb(254,254,254)" stroke="rgb(254,254,254)" stroke-width="1" opacity="1" d="M 590.5 298 L 591.5 300 L 590.5 298 Z " /><path fill="rgb(254,254,254)" stroke="rgb(254,254,254)" stroke-width="1" opacity="1" d="M 335.5 300 L 336.5 302 L 335.5 300 Z " /><path fill="rgb(254,254,254)" stroke="rgb(254,254,254)" stroke-width="1" opacity="1" d="M 325.5 301 L 326.5 303 L 325.5 301 Z " /><path fill="rgb(254,254,254)" stroke="rgb(254,254,254)" stroke-width="1" opacity="1" d="M 605.5 301 L 606.5 303 L 605.5 301 Z " /><path fill="rgb(254,254,254)" stroke="rgb(254,254,254)" stroke-width="1" opacity="1" d="M 609.5 301 L 608.5 303 L 609.5 301 Z " /><path fill="rgb(254,254,254)" stroke="rgb(254,254,254)" stroke-width="1" opacity="1" d="M 622.5 301 L 621.5 303 L 622.5 301 Z " /><path fill="rgb(254,254,254)" stroke="rgb(254,254,254)" stroke-width="1" opacity="1" d="M 337.5 303 L 338.5 305 L 337.5 303 Z " /><path fill="rgb(254,254,254)" stroke="rgb(254,254,254)" stroke-width="1" opacity="1" d="M 327.5 304 L 328.5 306 L 327.5 304 Z " /><path fill="rgb(254,254,254)" stroke="rgb(254,254,254)" stroke-width="1" opacity="1" d="M 620.5 304 L 619.5 306 L 620.5 304 Z " /><path fill="rgb(254,254,254)" stroke="rgb(254,254,254)" stroke-width="1" opacity="1" d="M 595.5 305 L 596.5 307 L 595.5 305 Z " /><path fill="rgb(254,254,254)" stroke="rgb(254,254,254)" stroke-width="1" opacity="1" d="M 339.5 306 L 340.5 308 L 339.5 306 Z " /><path fill="rgb(254,254,254)" stroke="rgb(254,254,254)" stroke-width="1" opacity="1" d="M 329.5 307 L 330.5 309 L 329.5 307 Z " /><path fill="rgb(254,254,254)" stroke="rgb(254,254,254)" stroke-width="1" opacity="1" d="M 525.5 307 L 526 315.5 L 525 315.5 L 525.5 307 Z " /><path fill="rgb(254,254,254)" stroke="rgb(254,254,254)" stroke-width="1" opacity="1" d="M 341.5 309 L 342.5 311 L 341.5 309 Z " /><path fill="rgb(254,254,254)" stroke="rgb(254,254,254)" stroke-width="1" opacity="1" d="M 598.5 309 L 599.5 311 L 598.5 309 Z " /><path fill="rgb(254,254,254)" stroke="rgb(254,254,254)" stroke-width="1" opacity="1" d="M 332.5 311 L 333.5 313 L 332.5 311 Z " /><path fill="rgb(254,254,254)" stroke="rgb(254,254,254)" stroke-width="1" opacity="1" d="M 343.5 312 L 344.5 314 L 343.5 312 Z " /><path fill="rgb(254,254,254)" stroke="rgb(254,254,254)" stroke-width="1" opacity="1" d="M 334.5 314 L 335.5 316 L 334.5 314 Z " /><path fill="rgb(254,254,254)" stroke="rgb(254,254,254)" stroke-width="1" opacity="1" d="M 345.5 315 L 346.5 317 L 345.5 315 Z " /><path fill="rgb(254,254,254)" stroke="rgb(254,254,254)" stroke-width="1" opacity="1" d="M 617.5 316 L 618.5 318 L 617.5 316 Z " /><path fill="rgb(254,254,254)" stroke="rgb(254,254,254)" stroke-width="1" opacity="1" d="M 336.5 317 L 337.5 319 L 336.5 317 Z " /><path fill="rgb(254,254,254)" stroke="rgb(254,254,254)" stroke-width="1" opacity="1" d="M 347.5 318 L 348.5 320 L 347.5 318 Z " /><path fill="rgb(254,254,254)" stroke="rgb(254,254,254)" stroke-width="1" opacity="1" d="M 596.5 318 L 595.5 320 L 596.5 318 Z " /><path fill="rgb(254,254,254)" stroke="rgb(254,254,254)" stroke-width="1" opacity="1" d="M 338.5 320 L 339.5 322 L 338.5 320 Z " /><path fill="rgb(254,254,254)" stroke="rgb(254,254,254)" stroke-width="1" opacity="1" d="M 349.5 321 L 350.5 323 L 349.5 321 Z " /><path fill="rgb(254,254,254)" stroke="rgb(254,254,254)" stroke-width="1" opacity="1" d="M 593.5 322 L 592.5 324 L 593.5 322 Z " /><path fill="rgb(254,254,254)" stroke="rgb(254,254,254)" stroke-width="1" opacity="1" d="M 606.5 322 L 605.5 324 L 606.5 322 Z " /><path fill="rgb(254,254,254)" stroke="rgb(254,254,254)" stroke-width="1" opacity="1" d="M 608.5 322 L 609.5 324 L 608.5 322 Z " /><path fill="rgb(254,254,254)" stroke="rgb(254,254,254)" stroke-width="1" opacity="1" d="M 340.5 323 L 341.5 325 L 340.5 323 Z " /><path fill="rgb(254,254,254)" stroke="rgb(254,254,254)" stroke-width="1" opacity="1" d="M 622.5 323 L 623.5 325 L 622.5 323 Z " /><path fill="rgb(254,254,254)" stroke="rgb(254,254,254)" stroke-width="1" opacity="1" d="M 351.5 324 L 352.5 326 L 351.5 324 Z " /><path fill="rgb(254,254,254)" stroke="rgb(254,254,254)" stroke-width="1" opacity="1" d="M 342.5 326 L 343.5 328 L 342.5 326 Z " /><path fill="rgb(254,254,254)" stroke="rgb(254,254,254)" stroke-width="1" opacity="1" d="M 603.5 326 L 602.5 328 L 603.5 326 Z " /><path fill="rgb(254,254,254)" stroke="rgb(254,254,254)" stroke-width="1" opacity="1" d="M 611.5 326 L 612.5 328 L 611.5 326 Z " /><path fill="rgb(254,254,254)" stroke="rgb(254,254,254)" stroke-width="1" opacity="1" d="M 353.5 327 L 354.5 329 L 353.5 327 Z " /><path fill="rgb(254,254,254)" stroke="rgb(254,254,254)" stroke-width="1" opacity="1" d="M 625.5 327 L 626.5 329 L 625.5 327 Z " /><path fill="rgb(254,254,254)" stroke="rgb(254,254,254)" stroke-width="1" opacity="1" d="M 588.5 329 L 587.5 331 L 588.5 329 Z " /><path fill="rgb(254,254,254)" stroke="rgb(254,254,254)" stroke-width="1" opacity="1" d="M 601.5 329 L 600.5 331 L 601.5 329 Z " /><path fill="rgb(254,254,254)" stroke="rgb(254,254,254)" stroke-width="1" opacity="1" d="M 613.5 329 L 614.5 331 L 613.5 329 Z " /><path fill="rgb(254,254,254)" stroke="rgb(254,254,254)" stroke-width="1" opacity="1" d="M 345.5 330 L 346.5 332 L 345.5 330 Z " /><path fill="rgb(254,254,254)" stroke="rgb(254,254,254)" stroke-width="1" opacity="1" d="M 355.5 330 L 356.5 332 L 355.5 330 Z " /><path fill="rgb(254,254,254)" stroke="rgb(254,254,254)" stroke-width="1" opacity="1" d="M 627.5 330 L 628.5 332 L 627.5 330 Z " /><path fill="rgb(254,254,254)" stroke="rgb(254,254,254)" stroke-width="1" opacity="1" d="M 347.5 333 L 348.5 335 L 347.5 333 Z " /><path fill="rgb(254,254,254)" stroke="rgb(254,254,254)" stroke-width="1" opacity="1" d="M 357.5 333 L 358.5 335 L 357.5 333 Z " /><path fill="rgb(254,254,254)" stroke="rgb(254,254,254)" stroke-width="1" opacity="1" d="M 585.5 333 L 584.5 335 L 585.5 333 Z " /><path fill="rgb(254,254,254)" stroke="rgb(254,254,254)" stroke-width="1" opacity="1" d="M 598.5 333 L 597.5 335 L 598.5 333 Z " /><path fill="rgb(254,254,254)" stroke="rgb(254,254,254)" stroke-width="1" opacity="1" d="M 616.5 333 L 617.5 335 L 616.5 333 Z " /><path fill="rgb(254,254,254)" stroke="rgb(254,254,254)" stroke-width="1" opacity="1" d="M 630.5 334 L 631.5 336 L 630.5 334 Z " /><path fill="rgb(254,254,254)" stroke="rgb(254,254,254)" stroke-width="1" opacity="1" d="M 349.5 336 L 350.5 338 L 349.5 336 Z " /><path fill="rgb(254,254,254)" stroke="rgb(254,254,254)" stroke-width="1" opacity="1" d="M 359.5 336 L 360.5 338 L 359.5 336 Z " /><path fill="rgb(254,254,254)" stroke="rgb(254,254,254)" stroke-width="1" opacity="1" d="M 595.5 337 L 594.5 339 L 595.5 337 Z " /><path fill="rgb(254,254,254)" stroke="rgb(254,254,254)" stroke-width="1" opacity="1" d="M 351.5 339 L 352.5 341 L 351.5 339 Z " /><path fill="rgb(254,254,254)" stroke="rgb(254,254,254)" stroke-width="1" opacity="1" d="M 361.5 339 L 362.5 341 L 361.5 339 Z " /><path fill="rgb(254,254,254)" stroke="rgb(254,254,254)" stroke-width="1" opacity="1" d="M 580.5 340 L 579.5 342 L 580.5 340 Z " /><path fill="rgb(254,254,254)" stroke="rgb(254,254,254)" stroke-width="1" opacity="1" d="M 593.5 340 L 592.5 342 L 593.5 340 Z " /><path fill="rgb(254,254,254)" stroke="rgb(254,254,254)" stroke-width="1" opacity="1" d="M 621.5 340 L 622.5 342 L 621.5 340 Z " /><path fill="rgb(254,254,254)" stroke="rgb(254,254,254)" stroke-width="1" opacity="1" d="M 635.5 341 L 636.5 343 L 635.5 341 Z " /><path fill="rgb(254,254,254)" stroke="rgb(254,254,254)" stroke-width="1" opacity="1" d="M 353.5 342 L 354.5 344 L 353.5 342 Z " /><path fill="rgb(254,254,254)" stroke="rgb(254,254,254)" stroke-width="1" opacity="1" d="M 363.5 342 L 364.5 344 L 363.5 342 Z " /><path fill="rgb(254,254,254)" stroke="rgb(254,254,254)" stroke-width="1" opacity="1" d="M 577.5 344 L 576.5 346 L 577.5 344 Z " /><path fill="rgb(254,254,254)" stroke="rgb(254,254,254)" stroke-width="1" opacity="1" d="M 590.5 344 L 589.5 346 L 590.5 344 Z " /><path fill="rgb(254,254,254)" stroke="rgb(254,254,254)" stroke-width="1" opacity="1" d="M 624.5 344 L 625.5 346 L 624.5 344 Z " /><path fill="rgb(254,254,254)" stroke="rgb(254,254,254)" stroke-width="1" opacity="1" d="M 365.5 345 L 366.5 347 L 365.5 345 Z " /><path fill="rgb(254,254,254)" stroke="rgb(254,254,254)" stroke-width="1" opacity="1" d="M 638.5 345 L 639.5 347 L 638.5 345 Z " /><path fill="rgb(254,254,254)" stroke="rgb(254,254,254)" stroke-width="1" opacity="1" d="M 626.5 347 L 627.5 349 L 626.5 347 Z " /><path fill="rgb(254,254,254)" stroke="rgb(254,254,254)" stroke-width="1" opacity="1" d="M 367.5 348 L 368.5 350 L 367.5 348 Z " /><path fill="rgb(254,254,254)" stroke="rgb(254,254,254)" stroke-width="1" opacity="1" d="M 574.5 348 L 573.5 350 L 574.5 348 Z " /><path fill="rgb(254,254,254)" stroke="rgb(254,254,254)" stroke-width="1" opacity="1" d="M 640.5 348 L 641.5 350 L 640.5 348 Z " /><path fill="rgb(254,254,254)" stroke="rgb(254,254,254)" stroke-width="1" opacity="1" d="M 358.5 349 L 359.5 351 L 358.5 349 Z " /><path fill="rgb(254,254,254)" stroke="rgb(254,254,254)" stroke-width="1" opacity="1" d="M 867.5 350 L 871 350.5 L 867.5 351 L 867.5 350 Z " /><path fill="rgb(254,254,254)" stroke="rgb(254,254,254)" stroke-width="1" opacity="1" d="M 369.5 351 L 370.5 353 L 369.5 351 Z " /><path fill="rgb(254,254,254)" stroke="rgb(254,254,254)" stroke-width="1" opacity="1" d="M 585.5 351 L 584.5 353 L 585.5 351 Z " /><path fill="rgb(254,254,254)" stroke="rgb(254,254,254)" stroke-width="1" opacity="1" d="M 629.5 351 L 630.5 353 L 629.5 351 Z " /><path fill="rgb(254,254,254)" stroke="rgb(254,254,254)" stroke-width="1" opacity="1" d="M 360.5 352 L 361.5 354 L 360.5 352 Z " /><path fill="rgb(254,254,254)" stroke="rgb(254,254,254)" stroke-width="1" opacity="1" d="M 643.5 352 L 644.5 354 L 643.5 352 Z " /><path fill="rgb(254,254,254)" stroke="rgb(254,254,254)" stroke-width="1" opacity="1" d="M 874.5 352 L 876.5 355 L 874.5 352 Z " /><path fill="rgb(254,254,254)" stroke="rgb(254,254,254)" stroke-width="1" opacity="1" d="M 371.5 354 L 372.5 356 L 371.5 354 Z " /><path fill="rgb(254,254,254)" stroke="rgb(254,254,254)" stroke-width="1" opacity="1" d="M 362.5 355 L 363.5 357 L 362.5 355 Z " /><path fill="rgb(254,254,254)" stroke="rgb(254,254,254)" stroke-width="1" opacity="1" d="M 569.5 355 L 568.5 357 L 569.5 355 Z " /><path fill="rgb(254,254,254)" stroke="rgb(254,254,254)" stroke-width="1" opacity="1" d="M 582.5 355 L 581.5 357 L 582.5 355 Z " /><path fill="rgb(254,254,254)" stroke="rgb(254,254,254)" stroke-width="1" opacity="1" d="M 632.5 355 L 633.5 357 L 632.5 355 Z " /><path fill="rgb(254,254,254)" stroke="rgb(254,254,254)" stroke-width="1" opacity="1" d="M 645.5 355 L 646.5 357 L 645.5 355 Z " /><path fill="rgb(254,254,254)" stroke="rgb(254,254,254)" stroke-width="1" opacity="1" d="M 864.5 355 L 868 355.5 L 864.5 356 L 864.5 355 Z " /><path fill="rgb(254,254,254)" stroke="rgb(254,254,254)" stroke-width="1" opacity="1" d="M 373.5 357 L 374.5 359 L 373.5 357 Z " /><path fill="rgb(254,254,254)" stroke="rgb(254,254,254)" stroke-width="1" opacity="1" d="M 859.5 357 L 859 358.5 L 858.5 360 L 858 358.5 L 859.5 357 Z " /><path fill="rgb(254,254,254)" stroke="rgb(254,254,254)" stroke-width="1" opacity="1" d="M 364.5 358 L 365.5 360 L 364.5 358 Z " /><path fill="rgb(254,254,254)" stroke="rgb(254,254,254)" stroke-width="1" opacity="1" d="M 634.5 358 L 635.5 360 L 634.5 358 Z " /><path fill="rgb(254,254,254)" stroke="rgb(254,254,254)" stroke-width="1" opacity="1" d="M 566.5 359 L 565.5 361 L 566.5 359 Z " /><path fill="rgb(254,254,254)" stroke="rgb(254,254,254)" stroke-width="1" opacity="1" d="M 648.5 359 L 649.5 361 L 648.5 359 Z " /><path fill="rgb(254,254,254)" stroke="rgb(254,254,254)" stroke-width="1" opacity="1" d="M 375.5 360 L 376.5 362 L 375.5 360 Z " /><path fill="rgb(254,254,254)" stroke="rgb(254,254,254)" stroke-width="1" opacity="1" d="M 366.5 361 L 367.5 363 L 366.5 361 Z " /><path fill="rgb(254,254,254)" stroke="rgb(254,254,254)" stroke-width="1" opacity="1" d="M 577.5 362 L 576.5 364 L 577.5 362 Z " /><path fill="rgb(254,254,254)" stroke="rgb(254,254,254)" stroke-width="1" opacity="1" d="M 637.5 362 L 638.5 364 L 637.5 362 Z " /><path fill="rgb(254,254,254)" stroke="rgb(254,254,254)" stroke-width="1" opacity="1" d="M 650.5 362 L 652.5 365 L 650.5 362 Z " /><path fill="rgb(254,254,254)" stroke="rgb(254,254,254)" stroke-width="1" opacity="1" d="M 858.5 362 L 859.5 364 L 858.5 362 Z " /><path fill="rgb(254,254,254)" stroke="rgb(254,254,254)" stroke-width="1" opacity="1" d="M 377.5 363 L 378.5 365 L 377.5 363 Z " /><path fill="rgb(254,254,254)" stroke="rgb(254,254,254)" stroke-width="1" opacity="1" d="M 639.5 365 L 640.5 367 L 639.5 365 Z " /><path fill="rgb(254,254,254)" stroke="rgb(254,254,254)" stroke-width="1" opacity="1" d="M 379.5 366 L 380.5 368 L 379.5 366 Z " /><path fill="rgb(254,254,254)" stroke="rgb(254,254,254)" stroke-width="1" opacity="1" d="M 561.5 366 L 560.5 368 L 561.5 366 Z " /><path fill="rgb(254,254,254)" stroke="rgb(254,254,254)" stroke-width="1" opacity="1" d="M 574.5 366 L 573.5 368 L 574.5 366 Z " /><path fill="rgb(254,254,254)" stroke="rgb(254,254,254)" stroke-width="1" opacity="1" d="M 653.5 366 L 654.5 368 L 653.5 366 Z " /><path fill="rgb(254,254,254)" stroke="rgb(254,254,254)" stroke-width="1" opacity="1" d="M 371.5 368 L 372.5 370 L 371.5 368 Z " /><path fill="rgb(254,254,254)" stroke="rgb(254,254,254)" stroke-width="1" opacity="1" d="M 855.5 368 L 856.5 370 L 855.5 368 Z " /><path fill="rgb(254,254,254)" stroke="rgb(254,254,254)" stroke-width="1" opacity="1" d="M 381.5 369 L 382.5 371 L 381.5 369 Z " /><path fill="rgb(254,254,254)" stroke="rgb(254,254,254)" stroke-width="1" opacity="1" d="M 642.5 369 L 643.5 371 L 642.5 369 Z " /><path fill="rgb(254,254,254)" stroke="rgb(254,254,254)" stroke-width="1" opacity="1" d="M 875.5 369 L 877.5 372 L 875.5 369 Z " /><path fill="rgb(254,254,254)" stroke="rgb(254,254,254)" stroke-width="1" opacity="1" d="M 558.5 370 L 557.5 372 L 558.5 370 Z " /><path fill="rgb(254,254,254)" stroke="rgb(254,254,254)" stroke-width="1" opacity="1" d="M 656.5 370 L 657.5 372 L 656.5 370 Z " /><path fill="rgb(254,254,254)" stroke="rgb(254,254,254)" stroke-width="1" opacity="1" d="M 373.5 371 L 374.5 373 L 373.5 371 Z " /><path fill="rgb(254,254,254)" stroke="rgb(254,254,254)" stroke-width="1" opacity="1" d="M 383.5 372 L 384.5 374 L 383.5 372 Z " /><path fill="rgb(254,254,254)" stroke="rgb(254,254,254)" stroke-width="1" opacity="1" d="M 569.5 373 L 568.5 375 L 569.5 373 Z " /><path fill="rgb(254,254,254)" stroke="rgb(254,254,254)" stroke-width="1" opacity="1" d="M 645.5 373 L 646.5 375 L 645.5 373 Z " /><path fill="rgb(254,254,254)" stroke="rgb(254,254,254)" stroke-width="1" opacity="1" d="M 658.5 373 L 659.5 375 L 658.5 373 Z " /><path fill="rgb(254,254,254)" stroke="rgb(254,254,254)" stroke-width="1" opacity="1" d="M 375.5 374 L 376.5 376 L 375.5 374 Z " /><path fill="rgb(254,254,254)" stroke="rgb(254,254,254)" stroke-width="1" opacity="1" d="M 871.5 374 L 872.5 376 L 871.5 374 Z " /><path fill="rgb(254,254,254)" stroke="rgb(254,254,254)" stroke-width="1" opacity="1" d="M 385.5 375 L 386.5 377 L 385.5 375 Z " /><path fill="rgb(254,254,254)" stroke="rgb(254,254,254)" stroke-width="1" opacity="1" d="M 647.5 376 L 648.5 378 L 647.5 376 Z " /><path fill="rgb(254,254,254)" stroke="rgb(254,254,254)" stroke-width="1" opacity="1" d="M 879.5 376 L 880 379.5 L 879 379.5 L 879.5 376 Z " /><path fill="rgb(254,254,254)" stroke="rgb(254,254,254)" stroke-width="1" opacity="1" d="M 377.5 377 L 378.5 379 L 377.5 377 Z " /><path fill="rgb(254,254,254)" stroke="rgb(254,254,254)" stroke-width="1" opacity="1" d="M 553.5 377 L 552.5 379 L 553.5 377 Z " /><path fill="rgb(254,254,254)" stroke="rgb(254,254,254)" stroke-width="1" opacity="1" d="M 566.5 377 L 565.5 379 L 566.5 377 Z " /><path fill="rgb(254,254,254)" stroke="rgb(254,254,254)" stroke-width="1" opacity="1" d="M 661.5 377 L 662.5 379 L 661.5 377 Z " /><path fill="rgb(254,254,254)" stroke="rgb(254,254,254)" stroke-width="1" opacity="1" d="M 387.5 378 L 388.5 380 L 387.5 378 Z " /><path fill="rgb(254,254,254)" stroke="rgb(254,254,254)" stroke-width="1" opacity="1" d="M 379.5 380 L 380.5 382 L 379.5 380 Z " /><path fill="rgb(254,254,254)" stroke="rgb(254,254,254)" stroke-width="1" opacity="1" d="M 564.5 380 L 563.5 382 L 564.5 380 Z " /><path fill="rgb(254,254,254)" stroke="rgb(254,254,254)" stroke-width="1" opacity="1" d="M 650.5 380 L 651.5 382 L 650.5 380 Z " /><path fill="rgb(254,254,254)" stroke="rgb(254,254,254)" stroke-width="1" opacity="1" d="M 663.5 380 L 665.5 383 L 663.5 380 Z " /><path fill="rgb(254,254,254)" stroke="rgb(254,254,254)" stroke-width="1" opacity="1" d="M 809.5 380 L 812 380.5 L 807.5 383 L 809.5 380 Z " /><path fill="rgb(254,254,254)" stroke="rgb(254,254,254)" stroke-width="1" opacity="1" d="M 821.5 380 L 823 383.5 L 821 382.5 L 821.5 380 Z " /><path fill="rgb(254,254,254)" stroke="rgb(254,254,254)" stroke-width="1" opacity="1" d="M 872.5 380 L 871.5 382 L 872.5 380 Z " /><path fill="rgb(254,254,254)" stroke="rgb(254,254,254)" stroke-width="1" opacity="1" d="M 389.5 381 L 390.5 383 L 389.5 381 Z " /><path fill="rgb(254,254,254)" stroke="rgb(254,254,254)" stroke-width="1" opacity="1" d="M 550.5 381 L 549.5 383 L 550.5 381 Z " /><path fill="rgb(254,254,254)" stroke="rgb(254,254,254)" stroke-width="1" opacity="1" d="M 813.5 381 L 815 383.5 L 814 383.5 L 813.5 381 Z " /><path fill="rgb(254,254,254)" stroke="rgb(254,254,254)" stroke-width="1" opacity="1" d="M 878.5 381 L 879 382.5 L 877 383.5 L 878.5 381 Z " /><path fill="rgb(254,254,254)" stroke="rgb(254,254,254)" stroke-width="1" opacity="1" d="M 652.5 383 L 653.5 385 L 652.5 383 Z " /><path fill="rgb(254,254,254)" stroke="rgb(254,254,254)" stroke-width="1" opacity="1" d="M 864.5 383 L 867 383.5 L 864.5 384 L 864.5 383 Z " /><path fill="rgb(254,254,254)" stroke="rgb(254,254,254)" stroke-width="1" opacity="1" d="M 382.5 384 L 383.5 386 L 382.5 384 Z " /><path fill="rgb(254,254,254)" stroke="rgb(254,254,254)" stroke-width="1" opacity="1" d="M 391.5 384 L 392.5 386 L 391.5 384 Z " /><path fill="rgb(254,254,254)" stroke="rgb(254,254,254)" stroke-width="1" opacity="1" d="M 561.5 384 L 560.5 386 L 561.5 384 Z " /><path fill="rgb(254,254,254)" stroke="rgb(254,254,254)" stroke-width="1" opacity="1" d="M 666.5 384 L 667.5 386 L 666.5 384 Z " /><path fill="rgb(254,254,254)" stroke="rgb(254,254,254)" stroke-width="1" opacity="1" d="M 853.5 384 L 855.5 387 L 853.5 384 Z " /><path fill="rgb(254,254,254)" stroke="rgb(254,254,254)" stroke-width="1" opacity="1" d="M 547.5 385 L 546.5 387 L 547.5 385 Z " /><path fill="rgb(254,254,254)" stroke="rgb(254,254,254)" stroke-width="1" opacity="1" d="M 814.5 385 L 815 386.5 L 813 387.5 L 814.5 385 Z " /><path fill="rgb(254,254,254)" stroke="rgb(254,254,254)" stroke-width="1" opacity="1" d="M 807.5 386 L 812 388.5 L 809.5 389 L 807.5 386 Z " /><path fill="rgb(254,254,254)" stroke="rgb(254,254,254)" stroke-width="1" opacity="1" d="M 384.5 387 L 385.5 389 L 384.5 387 Z " /><path fill="rgb(254,254,254)" stroke="rgb(254,254,254)" stroke-width="1" opacity="1" d="M 393.5 387 L 394.5 389 L 393.5 387 Z " /><path fill="rgb(254,254,254)" stroke="rgb(254,254,254)" stroke-width="1" opacity="1" d="M 655.5 387 L 656.5 389 L 655.5 387 Z " /><path fill="rgb(254,254,254)" stroke="rgb(254,254,254)" stroke-width="1" opacity="1" d="M 545.5 388 L 544.5 390 L 545.5 388 Z " /><path fill="rgb(254,254,254)" stroke="rgb(254,254,254)" stroke-width="1" opacity="1" d="M 558.5 388 L 557.5 390 L 558.5 388 Z " /><path fill="rgb(254,254,254)" stroke="rgb(254,254,254)" stroke-width="1" opacity="1" d="M 669.5 388 L 670.5 390 L 669.5 388 Z " /><path fill="rgb(254,254,254)" stroke="rgb(254,254,254)" stroke-width="1" opacity="1" d="M 828.5 388 L 832 388.5 L 828.5 389 L 828.5 388 Z " /><path fill="rgb(254,254,254)" stroke="rgb(254,254,254)" stroke-width="1" opacity="1" d="M 859.5 388 L 862 388.5 L 859.5 389 L 859.5 388 Z " /><path fill="rgb(254,254,254)" stroke="rgb(254,254,254)" stroke-width="1" opacity="1" d="M 386.5 390 L 387.5 392 L 386.5 390 Z " /><path fill="rgb(254,254,254)" stroke="rgb(254,254,254)" stroke-width="1" opacity="1" d="M 395.5 390 L 396.5 392 L 395.5 390 Z " /><path fill="rgb(254,254,254)" stroke="rgb(254,254,254)" stroke-width="1" opacity="1" d="M 556.5 391 L 555.5 393 L 556.5 391 Z " /><path fill="rgb(254,254,254)" stroke="rgb(254,254,254)" stroke-width="1" opacity="1" d="M 658.5 391 L 659.5 393 L 658.5 391 Z " /><path fill="rgb(254,254,254)" stroke="rgb(254,254,254)" stroke-width="1" opacity="1" d="M 671.5 391 L 672.5 393 L 671.5 391 Z " /><path fill="rgb(254,254,254)" stroke="rgb(254,254,254)" stroke-width="1" opacity="1" d="M 542.5 392 L 541.5 394 L 542.5 392 Z " /><path fill="rgb(254,254,254)" stroke="rgb(254,254,254)" stroke-width="1" opacity="1" d="M 388.5 393 L 389.5 395 L 388.5 393 Z " /><path fill="rgb(254,254,254)" stroke="rgb(254,254,254)" stroke-width="1" opacity="1" d="M 397.5 393 L 398.5 395 L 397.5 393 Z " /><path fill="rgb(254,254,254)" stroke="rgb(254,254,254)" stroke-width="1" opacity="1" d="M 660.5 394 L 661.5 396 L 660.5 394 Z " /><path fill="rgb(254,254,254)" stroke="rgb(254,254,254)" stroke-width="1" opacity="1" d="M 553.5 395 L 552.5 397 L 553.5 395 Z " /><path fill="rgb(254,254,254)" stroke="rgb(254,254,254)" stroke-width="1" opacity="1" d="M 674.5 395 L 675.5 397 L 674.5 395 Z " /><path fill="rgb(254,254,254)" stroke="rgb(254,254,254)" stroke-width="1" opacity="1" d="M 390.5 396 L 391.5 398 L 390.5 396 Z " /><path fill="rgb(254,254,254)" stroke="rgb(254,254,254)" stroke-width="1" opacity="1" d="M 399.5 396 L 400.5 398 L 399.5 396 Z " /><path fill="rgb(254,254,254)" stroke="rgb(254,254,254)" stroke-width="1" opacity="1" d="M 539.5 396 L 538.5 398 L 539.5 396 Z " /><path fill="rgb(254,254,254)" stroke="rgb(254,254,254)" stroke-width="1" opacity="1" d="M 663.5 398 L 664.5 400 L 663.5 398 Z " /><path fill="rgb(254,254,254)" stroke="rgb(254,254,254)" stroke-width="1" opacity="1" d="M 676.5 398 L 677.5 400 L 676.5 398 Z " /><path fill="rgb(254,254,254)" stroke="rgb(254,254,254)" stroke-width="1" opacity="1" d="M 392.5 399 L 394.5 402 L 392.5 399 Z " /><path fill="rgb(254,254,254)" stroke="rgb(254,254,254)" stroke-width="1" opacity="1" d="M 401.5 399 L 402.5 401 L 401.5 399 Z " /><path fill="rgb(254,254,254)" stroke="rgb(254,254,254)" stroke-width="1" opacity="1" d="M 403.5 402 L 404.5 404 L 403.5 402 Z " /><path fill="rgb(254,254,254)" stroke="rgb(254,254,254)" stroke-width="1" opacity="1" d="M 395.5 403 L 397.5 406 L 395.5 403 Z " /><path fill="rgb(254,254,254)" stroke="rgb(254,254,254)" stroke-width="1" opacity="1" d="M 405.5 405 L 406.5 407 L 405.5 405 Z " /><path fill="rgb(254,254,254)" stroke="rgb(254,254,254)" stroke-width="1" opacity="1" d="M 398.5 407 L 400.5 410 L 398.5 407 Z " /><path fill="rgb(254,254,254)" stroke="rgb(254,254,254)" stroke-width="1" opacity="1" d="M 407.5 408 L 408.5 410 L 407.5 408 Z " /><path fill="rgb(254,254,254)" stroke="rgb(254,254,254)" stroke-width="1" opacity="1" d="M 401.5 411 L 403.5 414 L 401.5 411 Z " /><path fill="rgb(254,254,254)" stroke="rgb(254,254,254)" stroke-width="1" opacity="1" d="M 409.5 411 L 410.5 413 L 409.5 411 Z " /><path fill="rgb(254,254,254)" stroke="rgb(254,254,254)" stroke-width="1" opacity="1" d="M 411.5 414 L 412.5 416 L 411.5 414 Z " /><path fill="rgb(254,254,254)" stroke="rgb(254,254,254)" stroke-width="1" opacity="1" d="M 404.5 415 L 406.5 418 L 404.5 415 Z " /><path fill="rgb(254,254,254)" stroke="rgb(254,254,254)" stroke-width="1" opacity="1" d="M 413.5 417 L 414.5 419 L 413.5 417 Z " /><path fill="rgb(254,254,254)" stroke="rgb(254,254,254)" stroke-width="1" opacity="1" d="M 407.5 419 L 409.5 422 L 407.5 419 Z " /><path fill="rgb(254,254,254)" stroke="rgb(254,254,254)" stroke-width="1" opacity="1" d="M 415.5 420 L 416.5 422 L 415.5 420 Z " /><path fill="rgb(254,254,254)" stroke="rgb(254,254,254)" stroke-width="1" opacity="1" d="M 410.5 423 L 412.5 426 L 410.5 423 Z " /><path fill="rgb(254,254,254)" stroke="rgb(254,254,254)" stroke-width="1" opacity="1" d="M 417.5 423 L 418.5 425 L 417.5 423 Z " /><path fill="rgb(254,254,254)" stroke="rgb(254,254,254)" stroke-width="1" opacity="1" d="M 419.5 426 L 420.5 428 L 419.5 426 Z " /><path fill="rgb(254,254,254)" stroke="rgb(254,254,254)" stroke-width="1" opacity="1" d="M 414.5 428 L 415.5 430 L 414.5 428 Z " /><path fill="rgb(254,254,254)" stroke="rgb(254,254,254)" stroke-width="1" opacity="1" d="M 417.5 432 L 418.5 434 L 417.5 432 Z " /><path fill="rgb(254,254,254)" stroke="rgb(254,254,254)" stroke-width="1" opacity="1" d="M 420.5 436 L 421.5 438 L 420.5 436 Z " /><path fill="rgb(254,254,254)" stroke="rgb(254,254,254)" stroke-width="1" opacity="1" d="M 423.5 440 L 424.5 442 L 423.5 440 Z " /><path fill="rgb(254,254,254)" stroke="rgb(254,254,254)" stroke-width="1" opacity="1" d="M 426.5 444 L 427.5 446 L 426.5 444 Z " /><path fill="rgb(254,254,254)" stroke="rgb(254,254,254)" stroke-width="1" opacity="1" d="M 429.5 448 L 430.5 450 L 429.5 448 Z " /><path fill="rgb(254,254,254)" stroke="rgb(254,254,254)" stroke-width="1" opacity="1" d="M 432.5 452 L 433.5 454 L 432.5 452 Z " /><path fill="rgb(254,254,254)" stroke="rgb(254,254,254)" stroke-width="1" opacity="1" d="M 435.5 456 L 436.5 458 L 435.5 456 Z " /><path fill="rgb(254,254,254)" stroke="rgb(254,254,254)" stroke-width="1" opacity="1" d="M 438.5 460 L 439.5 462 L 438.5 460 Z " /><path fill="rgb(254,254,254)" stroke="rgb(254,254,254)" stroke-width="1" opacity="1" d="M 441.5 464 L 442.5 466 L 441.5 464 Z " /><path fill="rgb(254,254,254)" stroke="rgb(254,254,254)" stroke-width="1" opacity="1" d="M 444.5 468 L 445.5 470 L 444.5 468 Z " /><path fill="rgb(254,254,254)" stroke="rgb(254,254,254)" stroke-width="1" opacity="1" d="M 447.5 472 L 448.5 474 L 447.5 472 Z " /><path fill="rgb(254,254,254)" stroke="rgb(254,254,254)" stroke-width="1" opacity="1" d="M 450.5 476 L 451.5 478 L 450.5 476 Z " /><path fill="rgb(254,254,254)" stroke="rgb(254,254,254)" stroke-width="1" opacity="1" d="M 453.5 480 L 454.5 482 L 453.5 480 Z " /><path fill="rgb(254,254,254)" stroke="rgb(254,254,254)" stroke-width="1" opacity="1" d="M 456.5 484 L 459 484.5 Q 456.9 487.8 456.5 484 Z " /><path fill="rgb(254,254,254)" stroke="rgb(254,254,254)" stroke-width="1" opacity="1" d="M 460.5 487 L 460.5 490 Q 457.5 488.5 460.5 487 Z " /><path fill="rgb(254,254,254)" stroke="rgb(254,254,254)" stroke-width="1" opacity="1" d="M 462.5 492 L 465 493 L 469 499.5 L 465 496.5 L 462.5 492 Z " /><path fill="rgb(255,255,255)" stroke="rgb(255,255,255)" stroke-width="1" opacity="1" d="M 0 0 L 1179 0 L 1179 613 L 0 613 L 0 0 Z M 737 135 L 664 227 L 608 304 L 554 229 L 541 230 L 601 313 L 537 400 L 551 400 L 608 321 L 665 400 L 678 400 L 615 313 L 737 137 L 737 135 Z M 276 229 L 274 231 L 274 400 L 275 400 L 286 400 L 287 245 L 392 400 L 462 493 L 465 495 L 290 232 L 288 229 L 276 229 Z M 417 229 L 417 400 L 533 400 L 533 392 L 533 391 L 428 391 L 428 316 L 526 316 L 526 308 L 526 307 L 428 307 L 428 239 L 532 239 L 532 230 L 532 229 L 417 229 Z M 682 229 L 682 239 L 683 239 L 741 239 L 741 400 L 753 400 L 753 400 L 753 239 L 813 239 L 813 230 L 813 229 L 682 229 Z M 861 350 L 857 352 L 852 358 L 853 367 L 859 371 L 871 374 Q 874 375 873 380 L 869 383 L 860 382 L 858 380 Q 856 377 851 378 L 853 385 L 860 389 Q 869 390 875 387 L 880 380 L 878 372 L 872 367 L 861 364 L 858 362 L 859 359 L 863 356 L 871 357 L 872 360 Q 874 363 879 361 L 877 355 Q 873 348 861 350 Z M 838 351 L 838 377 L 837 381 L 835 383 L 830 382 Q 827 383 828 380 Q 826 377 821 378 L 821 383 L 824 387 L 829 389 Q 835 390 839 388 L 844 382 L 844 352 L 844 351 L 838 351 Z M 810 380 L 807 383 Q 806 388 810 389 L 814 388 Q 816 387 815 383 L 810 380 Z M 466 495 L 465 497 L 467 498 L 466 495 Z " /></svg>